#tb 0: 1/25
0,          0,          0,        1,   152064, 0x2b1a7a92
0,          1,          1,        1,   152064, 0x6f28685a
0,          2,          2,        1,   152064, 0xeac9f99c
0,          3,          3,        1,   152064, 0x3a059a74
0,          4,          4,        1,   152064, 0xb53ecbf0
0,          5,          5,        1,   152064, 0x288c9843
0,          6,          6,        1,   152064, 0x927a293b
0,          7,          7,        1,   152064, 0x85f72884
0,          8,          8,        1,   152064, 0x42c234b9
0,          9,          9,        1,   152064, 0x36c2152f
0,         10,         10,        1,   152064, 0x903b529a
0,         11,         11,        1,   152064, 0x29ce0a02
0,         12,         12,        1,   152064, 0x3683ebce
0,         13,         13,        1,   152064, 0xfb88cdab
0,         14,         14,        1,   152064, 0x3a6a4c7c
0,         15,         15,        1,   152064, 0x8d81ba4a
0,         16,         16,        1,   152064, 0x982cdddb
0,         17,         17,        1,   152064, 0x9554ee2f
0,         18,         18,        1,   152064, 0x1e61219d
0,         19,         19,        1,   152064, 0xfcfe9b00
0,         20,         20,        1,   152064, 0x891fb285
0,         21,         21,        1,   152064, 0x4401e619
0,         22,         22,        1,   152064, 0x57beea17
0,         23,         23,        1,   152064, 0x94102ade
0,         24,         24,        1,   152064, 0x5240e58d
0,         25,         25,        1,   152064, 0x3783abba
0,         26,         26,        1,   152064, 0x2570a936
0,         27,         27,        1,   152064, 0x53071378
0,         28,         28,        1,   152064, 0x3cda0c41
0,         29,         29,        1,   152064, 0x3a8cb83d
0,         30,         30,        1,   152064, 0x5fc0840b
0,         31,         31,        1,   152064, 0x32519f3d
0,         32,         32,        1,   152064, 0xac56b3f7
0,         33,         33,        1,   152064, 0xe36dfece
0,         34,         34,        1,   152064, 0xb663bfbd
0,         35,         35,        1,   152064, 0xafdf691c
0,         36,         36,        1,   152064, 0x31bd4631
0,         37,         37,        1,   152064, 0xac7a421a
0,         38,         38,        1,   152064, 0x05f7856d
0,         39,         39,        1,   152064, 0xec3a8ccf
0,         40,         40,        1,   152064, 0x9e7a7efb
0,         41,         41,        1,   152064, 0x9747b314
0,         42,         42,        1,   152064, 0x1ba4bcc0
0,         43,         43,        1,   152064, 0x90e31197
0,         44,         44,        1,   152064, 0x98f5d7cd
0,         45,         45,        1,   152064, 0x763053cb
0,         46,         46,        1,   152064, 0x4fb8183e
0,         47,         47,        1,   152064, 0xf27596ad
0,         48,         48,        1,   152064, 0x4c6a843a
0,         49,         49,        1,   152064, 0x7ff3c070
